<?xml version="1.0" encoding="utf-8"?>
<!-- Generator: Adobe Illustrator 25.0.0, SVG Export Plug-In . SVG Version: 6.00 Build 0)  -->
<svg version="1.1" id="Calque_1" xmlns="http://www.w3.org/2000/svg" xmlns:xlink="http://www.w3.org/1999/xlink" x="0px" y="0px"
	 viewBox="0 0 744.7 594.9" style="enable-background:new 0 0 744.7 594.9;" xml:space="preserve">
<style type="text/css">
	.st0{fill:none;stroke:#000000;stroke-width:4;stroke-linecap:round;stroke-miterlimit:10;}
	.st1{fill:none;stroke:#000000;stroke-width:2;stroke-linecap:round;stroke-miterlimit:10;}
	.st2{fill:none;stroke:#1F161E;stroke-linecap:round;stroke-miterlimit:10;}
	.st3{fill:#E72988;}
	.st4{fill:#969696;}
	.st5{fill:#AB8DE5;}
	.st6{fill:#FEEF62;}
	.st7{fill:#D8D8D8;}
	.st8{fill:#FFFFFF;}
	.st9{fill:none;stroke:#969696;stroke-width:0.82;stroke-linecap:round;stroke-linejoin:round;}
	.st10{font-family:'SofiaProSoftMedium';}
	.st11{font-size:7.3px;}
	.st12{fill:none;stroke:#000000;stroke-width:2;stroke-linecap:round;stroke-linejoin:round;}
	.st13{fill:#1F161E;}
	.st14{fill:#DB676D;}
	.st15{fill:#F8CDBA;}
	.st16{fill:#FA9E9F;}
</style>
<g id="Layer_2">
	<g id="Layer_2-2">
		<ellipse cx="332" cy="477" rx="63.1" ry="14"/>
		<line class="st0" x1="332" y1="477" x2="296.6" y2="587.9"/>
		<line class="st0" x1="332" y1="477" x2="367.5" y2="587.9"/>
		<line class="st1" x1="308.2" y1="551.5" x2="347.8" y2="526.1"/>
		<line class="st1" x1="316.2" y1="526.1" x2="355.7" y2="551.5"/>
		<path class="st2" d="M394.1,356.9c-0.2,4.9-0.1,22.1-0.9,29.5"/>
		<path d="M184.8,132.6L184.8,132.6c3.5,0,6.3,2.8,6.3,6.3v21.8c0,3.5-2.8,6.3-6.3,6.3l0,0c-3.5,0-6.3-2.8-6.3-6.3V139
			C178.5,135.5,181.3,132.6,184.8,132.6z"/>
		<circle class="st3" cx="184.8" cy="191.2" r="12.7"/>
		<path class="st3" d="M609.4,342h6c1.3,0,2.4-1.1,2.4-2.4v-36.9c0-0.6-0.3-1.2-0.7-1.7l-7.6-7.6c-0.4-0.4-1-0.7-1.7-0.7h-22.4
			c-1.3,0-2.4,1.1-2.4,2.4v3.6"/>
		<path d="M88.1,430c19,3.6,15.6,117-20.9,110.1C32.8,533.6,64.9,425.6,88.1,430z"/>
		<path class="st3" d="M4.6,444c15.1-8.6,78.4,71.1,49.5,87.5C26.8,547-13.8,454.4,4.6,444z"/>
		<path class="st4" d="M81.7,594.9H43.5c-3.2,0-5.9-2.4-6.2-5.6l-4.8-43.3c-0.4-3.4,2-6.5,5.5-7c0.2,0,0.5,0,0.7,0h47.6
			c3.5,0,6.2,2.8,6.2,6.3c0,0.2,0,0.4,0,0.7l-4.6,43.3C87.6,592.5,84.9,594.9,81.7,594.9z"/>
		<path class="st5" d="M98.8,385.8c14.5,4.2,3.4,91.7-24.3,83.7C48.3,461.9,81.2,380.7,98.8,385.8z"/>
		<path class="st3" d="M122.7,455.5c10,8.6-30.7,74.6-49.9,58C54.6,497.9,110.4,445,122.7,455.5z"/>
		<path class="st6" d="M62.7,394.9c21.7,0,41.5,138.3,0,138.3C23.5,533.2,36.3,394.9,62.7,394.9z"/>
		<path class="st7" d="M24.5,529.7h76.2c2.2,0,4.1,1.8,4.1,4v7.4c0,2.2-1.8,4-4.1,4H24.5c-2.2,0-4-1.8-4-4v-7.4
			C20.5,531.5,22.3,529.7,24.5,529.7z"/>
		<path class="st7" d="M599.3,298.7h-22c-1.5,0-2.7,1.2-2.7,2.7c0,0,0,0,0,0v43.8c0,1.5,1.2,2.7,2.7,2.7h29.4c1.5,0,2.7-1.2,2.7-2.7
			v-36.4c0-0.7-0.3-1.4-0.8-1.9l-7.4-7.4C600.7,299,600,298.7,599.3,298.7z"/>
		<path class="st4" d="M609.4,307.8h-7.5c-0.8,0-1.5-0.7-1.5-1.5v-7.5"/>
		<path class="st6" d="M617.8,301.8h-7.5c-0.8,0-1.5-0.7-1.5-1.5v-7.5"/>
		<path class="st6" d="M523.1,248.6h51.6c1.7,0,3,1.4,3,3v16.8c0,1.7-1.4,3-3,3h-51.6c-1.7,0-3-1.4-3-3v-16.8
			C520,250,521.4,248.6,523.1,248.6z"/>
		<polygon class="st6" points="548.8,287.2 555.8,266.2 541.9,266.2 		"/>
		<polygon class="st8" points="535.1,254.8 529.3,264.8 540.9,264.8 		"/>
		<polygon class="st8" points="562.6,264.8 568.4,254.8 556.8,254.8 		"/>
		<circle class="st8" cx="548.8" cy="259.8" r="4.4"/>
		<path class="st7" d="M510.5,200.1h33.8c1.5,0,2.7,1.2,2.7,2.6v20.5c0,1.5-1.2,2.6-2.7,2.6h-33.8c-1.5,0-2.6-1.2-2.6-2.6v-20.5
			C507.9,201.3,509.1,200.1,510.5,200.1z"/>
		<line class="st9" x1="509.1" y1="200.9" x2="527.4" y2="213"/>
		<line class="st9" x1="547" y1="200.1" x2="527.4" y2="213"/>
		<circle class="st3" cx="547" cy="200.1" r="5.6"/>
		<text transform="matrix(1 0 0 1 545.39 202.28)" class="st8 st10 st11">1</text>
		<path class="st7" d="M597.4,215.8h146c0.7,0,1.2,0.6,1.2,1.2v0.8c0,0.7-0.6,1.2-1.2,1.2h-146c-0.7,0-1.2-0.6-1.2-1.2v-0.8
			C596.2,216.4,596.8,215.8,597.4,215.8z"/>
		<path class="st4" d="M650.2,151.9h8.9c1.4,0,2.6,1.1,2.6,2.6v58.8c0,1.4-1.1,2.6-2.6,2.6h-8.9c-1.4,0-2.6-1.1-2.6-2.6v-58.8
			C647.7,153,648.8,151.9,650.2,151.9z"/>
		<path class="st7" d="M663.8,166.9h2.7c1.2,0,2.1,1,2.1,2.1v44.7c0,1.2-1,2.1-2.1,2.1h-2.7c-1.2,0-2.1-1-2.1-2.1V169
			C661.7,167.8,662.6,166.9,663.8,166.9z"/>
		<path class="st4" d="M670.7,166.9h2.9c1.1,0,2.1,0.9,2.1,2.1v44.8c0,1.1-0.9,2.1-2.1,2.1h-2.9c-1.1,0-2.1-0.9-2.1-2.1v-44.8
			C668.7,167.8,669.6,166.9,670.7,166.9z"/>
		<path class="st7" d="M676.3,171.5l2.4-1.1c1.1-0.5,2.4,0,2.9,1.1l18.6,40.5c0.5,1.1,0,2.4-1.1,2.9l-2.4,1.1
			c-1.1,0.5-2.4,0-2.9-1.1l-18.6-40.5C674.7,173.3,675.2,172,676.3,171.5z"/>
		<circle class="st7" cx="654.7" cy="195.7" r="3.9"/>
		<path class="st7" d="M651.1,202h7.1c0.5,0,0.9,0.4,0.9,0.9l0,0c0,0.5-0.4,0.9-0.9,0.9h-7.1c-0.5,0-0.9-0.4-0.9-0.9l0,0
			C650.2,202.4,650.6,202,651.1,202z"/>
		<path class="st7" d="M651.1,206.8h7.1c0.5,0,0.9,0.4,0.9,0.9l0,0c0,0.5-0.4,0.9-0.9,0.9h-7.1c-0.5,0-0.9-0.4-0.9-0.9l0,0
			C650.2,207.2,650.6,206.8,651.1,206.8z"/>
		<path class="st4" d="M579.5,303.2h7.1c0.5,0,0.9,0.4,0.9,0.9l0,0c0,0.5-0.4,0.9-0.9,0.9h-7.1c-0.5,0-0.9-0.4-0.9-0.9l0,0
			C578.5,303.7,579,303.2,579.5,303.2z"/>
		<path class="st4" d="M579.5,307.8h7.1c0.5,0,0.9,0.4,0.9,0.9l0,0c0,0.5-0.4,0.9-0.9,0.9h-7.1c-0.5,0-0.9-0.4-0.9-0.9l0,0
			C578.5,308.2,579,307.8,579.5,307.8z"/>
		<path class="st4" d="M579.1,315.5h25.8c0.5,0,0.9,0.4,0.9,0.9l0,0c0,0.5-0.4,0.9-0.9,0.9h-25.8c-0.5,0-0.9-0.4-0.9-0.9l0,0
			C578.1,315.9,578.6,315.5,579.1,315.5z"/>
		<path class="st4" d="M579.1,319.9h25.8c0.5,0,0.9,0.4,0.9,0.9l0,0c0,0.5-0.4,0.9-0.9,0.9h-25.8c-0.5,0-0.9-0.4-0.9-0.9l0,0
			C578.1,320.4,578.6,319.9,579.1,319.9z"/>
		<path class="st4" d="M579.1,324.4h25.8c0.5,0,0.9,0.4,0.9,0.9l0,0c0,0.5-0.4,0.9-0.9,0.9h-25.8c-0.5,0-0.9-0.4-0.9-0.9l0,0
			C578.1,324.8,578.6,324.4,579.1,324.4z"/>
		<path class="st4" d="M665.2,173.5L665.2,173.5c0.4,0,0.7,0.3,0.7,0.7v34.2c0,0.4-0.3,0.7-0.7,0.7h0c-0.4,0-0.7-0.3-0.7-0.7v-34.2
			C664.4,173.9,664.8,173.5,665.2,173.5z"/>
		<path class="st7" d="M628.9,217.4h6.3c1.4,0,2.5,1.1,2.5,2.5v0c0,1.4-1.1,2.5-2.5,2.5h-6.3c-1.4,0-2.5-1.1-2.5-2.5v0
			C626.4,218.6,627.5,217.4,628.9,217.4z"/>
		<path class="st7" d="M705.7,217.4h6.3c1.4,0,2.5,1.1,2.5,2.5v0c0,1.4-1.1,2.5-2.5,2.5h-6.3c-1.4,0-2.5-1.1-2.5-2.5v0
			C703.2,218.6,704.3,217.4,705.7,217.4z"/>
		<path class="st7" d="M439.1,222.3h36.5c6.6,0,12,5.4,12,12v17.8c0,6.6-5.4,12-12,12h-36.5c-6.6,0-12-5.4-12-12v-17.8
			C427.1,227.7,432.5,222.3,439.1,222.3z"/>
		<rect x="439.7" y="229" class="st5" width="9.1" height="28.3"/>
		<rect x="452.9" y="247.9" class="st5" width="9.1" height="9.5"/>
		<rect x="466" y="239.9" class="st5" width="9.1" height="17.5"/>
		<path class="st5" d="M184.8,152.9c-21.1,0-38.3,17.1-38.3,38.3c0,0,0,0,0,0h76.6C223.1,170,205.9,152.9,184.8,152.9
			C184.8,152.9,184.8,152.9,184.8,152.9z"/>
		<line class="st12" x1="184.8" y1="139.9" x2="184.8" y2="1"/>
		<path class="st13" d="M485.2,574.7c0,2.4-1.4,17.3,1.4,18.7s33.2,2.2,34.6,0.8s2.2-4.3,1-5.1s-13-3.2-14.6-4.3s-3.8-7-3-10.1"/>
		<path class="st6" d="M394.1,379.2l17.1-6.1c-0.7-31.3-8-101.1-18.4-111.5c-2.4-2.4-50.7-6.7-59.3-6.7c-51.4,0-66.6,5.9-70.5,9.7
			c-12,12-15.7,67.6-15.7,87.1s55,29.6,55,29.6l64.5,4.4c0,0,14.1,1.5,26.4,2.2C393.4,384.1,394.1,379.2,394.1,379.2z"/>
		<path class="st13" d="M445.2,397.4c4.7-1.4,51.3-9,61.5,1s42.1,153.4,42.1,156.7h-25.8l-34.8-74.8"/>
		<path class="st14" d="M275.4,384.6c-1.2,5.9-8.2,12.1-8.2,44c0,44.1,36.1,45,49.1,45c40.4,0,105.7-12,110.1-14.2
			c2.9,4.9,56.9,115,57.1,117.5h24.8c0,0-15.4-164.7-43.2-183.4C456.1,387.5,296.1,381.1,275.4,384.6z"/>
		<path class="st15" d="M420.8,352.4c-6.5,0-11.9,1.5-26.7,4.5l-0.8,28.2c14-5.6,17.2-13.5,21.3-13.5c10.1,0,15.4,5.2,21.4,5.2
			c4.2,0,11.7-3.3,11.7-7.7C447.8,359.8,428.9,352.4,420.8,352.4z"/>
		<path class="st13" d="M524.6,553.1c0,2.4-1.4,17.3,1.4,18.7s33.2,2.2,34.6,0.8s2.2-4.3,1-5.1s-13-3.2-14.6-4.3s-3.8-7-3-10.1"/>
		<path class="st15" d="M342.6,261.5c0,3.8-21.9,3.9-21.9,0v-30.7h21.9V261.5z"/>
		<path class="st13" d="M335.5,241c-2,0-14.8,5.6-14.8,8.8v-16.6C323.9,233.1,335.5,241,335.5,241z"/>
		<circle class="st15" cx="339.7" cy="215.8" r="26.5"/>
		<path class="st13" d="M367.1,195c-3.3,5.2-10.1,7.6-17.6,7.6c-6.3,0-15.5-1.8-22.1,1.9c-3.5,2-7.6,6.6-8.4,15.7
			c0,1.6-1.8,7.6-1.8,9.6c0,1.3-1.5,2.2-4,2.2c-1.3,0-3.8-2.1-3.8-5.3c0-3.7,1.5-5,1.5-8.1s-3.8-6.1-3.8-14.8
			c0-12.5,8-20.2,13.7-20.2c5.2,0,6.8,1.2,7.4,1.7c0-11.4,15-16.6,21-16.6c6.8,0,10,2.8,10,6.3c0,5.7-2.7,10.5-4.1,11.6
			c3.1-2.8,7.1-4.3,11.3-4.3c7.8,0,10.4,5.1,10.4,8.6c0,7.6-9.1,14.7-12.5,14.7c-0.9-1.8-1.9-3.5-3-5.2"/>
		<circle class="st15" cx="319.8" cy="219.3" r="5.6"/>
		<ellipse class="st16" cx="366.5" cy="218.4" rx="4.4" ry="2.3"/>
		<ellipse class="st16" cx="339" cy="218.4" rx="4.4" ry="2.3"/>
		<path class="st2" d="M355.8,213.6c0.8,1.2,5,6.1,0.6,8.1"/>
		<path class="st2" d="M347.6,227.4c-1.3,0-3.4-1.6-4.4-3.1"/>
		<path class="st2" d="M382.5,298.6c2,4.2,11.6,45.2,11.6,58.2"/>
		<path class="st15" d="M247.3,348.4c0,46.1,0.4,59.5,18.9,59.5c42.6,0,107.1-35,118.6-35c10.1,0,15.5,5.2,21.4,5.2
			c4.2,0,11.7-3.3,11.7-7.7c0-9.4-18.9-16.7-27-16.7c-18.2,0-90.7,17.5-92.4,17.5s-4.8-0.8-4.8-3.8c0-5.4,3.5-17.9,4-19L247.3,348.4
			z"/>
		<path class="st2" d="M308.4,308.2c-1.2,3.5-10.7,39.8-11.8,44.2"/>
		<path class="st4" d="M675.7,592.4L675.7,592.4c-2.7,0.7-5.5-0.9-6.3-3.6L618.3,394c-0.7-2.7,0.9-5.5,3.6-6.3l0,0
			c2.7-0.7,5.5,0.9,6.3,3.6l51.2,194.7C680.1,588.9,678.4,591.7,675.7,592.4z"/>
		<path class="st4" d="M614.1,387.8L614.1,387.8c2.7,0.7,4.4,3.5,3.6,6.3l-51.2,194.7c-0.7,2.7-3.5,4.4-6.3,3.6l0,0
			c-2.7-0.7-4.4-3.5-3.6-6.3l51.2-194.7C608.6,388.7,611.4,387,614.1,387.8z"/>
		<path class="st7" d="M543.5,387.8L543.5,387.8c2.7,0.7,4.4,3.5,3.6,6.3l-51.2,194.7c-0.7,2.7-3.5,4.4-6.3,3.6l0,0
			c-2.7-0.7-4.4-3.5-3.6-6.3l51.2-194.7C537.9,388.7,540.7,387,543.5,387.8z"/>
		<path class="st7" d="M604.2,588.8L604.2,588.8c-2.7,0.7-5.5-0.9-6.2-3.7l-50.3-195.3c-0.7-2.7,0.9-5.5,3.7-6.2l0,0
			c2.7-0.7,5.5,0.9,6.2,3.7l50.3,195.3C608.6,585.3,606.9,588.1,604.2,588.8z"/>
		<path class="st4" d="M255,387.8L255,387.8c2.7,0.7,4.4,3.5,3.6,6.3l-51.2,194.7c-0.7,2.7-3.5,4.4-6.3,3.6h0
			c-2.7-0.7-4.4-3.5-3.6-6.3l51.2-194.7C249.5,388.7,252.3,387,255,387.8z"/>
		<path class="st4" d="M315.8,592.4L315.8,592.4c-2.7,0.7-5.5-0.9-6.3-3.6L258.3,394c-0.7-2.7,0.9-5.5,3.6-6.3l0,0
			c2.7-0.7,5.5,0.9,6.3,3.6l51.2,194.7C320.1,588.9,318.5,591.7,315.8,592.4z"/>
		<path class="st7" d="M154.1,378.1h495.2c2.5,0,4.5,2,4.5,4.5v6.1c0,2.5-2,4.5-4.5,4.5H154.1c-2.5,0-4.5-2-4.5-4.5v-6.1
			C149.6,380.2,151.6,378.1,154.1,378.1z"/>
		<path class="st7" d="M181.9,387.8L181.9,387.8c2.7,0.7,4.4,3.5,3.6,6.3l-51.2,194.7c-0.7,2.7-3.5,4.4-6.3,3.6h0
			c-2.7-0.7-4.4-3.5-3.6-6.3l51.2-194.7C176.3,388.7,179.1,387,181.9,387.8z"/>
		<path class="st7" d="M242.6,592.4L242.6,592.4c-2.7,0.7-5.5-0.9-6.3-3.6L185.1,394c-0.7-2.7,0.9-5.5,3.6-6.3l0,0
			c2.7-0.7,5.5,0.9,6.3,3.6l51.2,194.7C247,588.9,245.3,591.7,242.6,592.4z"/>
		<path d="M520.3,378.1h-92.5l16.8-57.6c0.9-2.9,3.5-4.8,6.5-4.8h78.5c3.7-0.1,6.7,2.9,6.7,6.5c0,0.6-0.1,1.3-0.2,1.9L520.3,378.1z"
			/>
		<circle class="st8" cx="485.4" cy="346.9" r="5.7"/>
		<rect x="373.9" y="374.1" width="64.9" height="4"/>
	</g>
</g>
</svg>
