<?xml version="1.0" encoding="utf-8"?>
<!-- Generator: Adobe Illustrator 25.0.0, SVG Export Plug-In . SVG Version: 6.00 Build 0)  -->
<svg version="1.1" id="ARTWORK" xmlns="http://www.w3.org/2000/svg" xmlns:xlink="http://www.w3.org/1999/xlink" x="0px" y="0px"
	 viewBox="0 0 1321.8 809.8" style="enable-background:new 0 0 1321.8 809.8;" xml:space="preserve">
<style type="text/css">
	.st0{fill:none;}
	.st1{fill:#F2F2F2;stroke:#000000;stroke-width:2;stroke-linecap:round;stroke-linejoin:round;stroke-miterlimit:10;}
	.st2{fill:#E7F3FF;stroke:#332DE5;stroke-width:2;stroke-linecap:round;stroke-linejoin:round;stroke-miterlimit:10;}
	.st3{fill:#E0E0E0;stroke:#000000;stroke-width:2;stroke-linecap:round;stroke-linejoin:round;stroke-miterlimit:10;}
	.st4{fill:#FF0000;stroke:#000000;stroke-width:2;stroke-linecap:round;stroke-linejoin:round;stroke-miterlimit:10;}
	.st5{fill:#EDE73B;stroke:#000000;stroke-width:2;stroke-linecap:round;stroke-linejoin:round;stroke-miterlimit:10;}
	.st6{fill:#0F775E;stroke:#000000;stroke-width:2;stroke-linecap:round;stroke-linejoin:round;stroke-miterlimit:10;}
	.st7{fill:#FFF2ED;stroke:#000000;stroke-width:2;stroke-linecap:round;stroke-linejoin:round;stroke-miterlimit:10;}
	.st8{fill:none;stroke:#000000;stroke-width:2;stroke-linecap:round;stroke-linejoin:round;stroke-miterlimit:10;}
	.st9{fill:#FCEE21;stroke:#000000;stroke-width:2;stroke-linecap:round;stroke-linejoin:round;stroke-miterlimit:10;}
	.st10{fill:#D4145A;stroke:#000000;stroke-width:2;stroke-linecap:round;stroke-linejoin:round;stroke-miterlimit:10;}
	.st11{stroke:#000000;stroke-width:2;stroke-linecap:round;stroke-linejoin:round;stroke-miterlimit:10;}
	.st12{fill:#FFFFFF;stroke:#000000;stroke-width:2;stroke-linecap:round;stroke-linejoin:round;stroke-miterlimit:10;}
	.st13{fill:#D4987D;stroke:#000000;stroke-width:2;stroke-linecap:round;stroke-linejoin:round;stroke-miterlimit:10;}
	.st14{fill:#11102E;stroke:#11102E;stroke-width:2;stroke-linecap:round;stroke-linejoin:round;stroke-miterlimit:10;}
	.st15{fill:#FFFFFF;stroke:#11102E;stroke-width:2;stroke-linecap:round;stroke-linejoin:round;stroke-miterlimit:10;}
	.st16{fill:#A1CFE2;stroke:#11102E;stroke-width:2;stroke-linecap:round;stroke-linejoin:round;stroke-miterlimit:10;}
	.st17{fill:#00FFFF;stroke:#000000;stroke-width:2;stroke-linecap:round;stroke-linejoin:round;stroke-miterlimit:10;}
	.st18{fill:#ED1E79;stroke:#000000;stroke-width:2;stroke-linecap:round;stroke-linejoin:round;stroke-miterlimit:10;}
	.st19{fill:#FF00FF;stroke:#000000;stroke-width:2;stroke-linecap:round;stroke-linejoin:round;stroke-miterlimit:10;}
	.st20{fill:#47C3F1;stroke:#000000;stroke-width:2;stroke-linecap:round;stroke-linejoin:round;stroke-miterlimit:10;}
	
		.st21{fill:none;stroke:#000000;stroke-width:2;stroke-linecap:round;stroke-linejoin:round;stroke-miterlimit:10;stroke-dasharray:12;}
	.st22{fill:#FF7BAC;stroke:#000000;stroke-width:2;stroke-linecap:round;stroke-linejoin:round;stroke-miterlimit:10;}
	.st23{fill:url(#SVGID_1_);stroke:#000000;stroke-width:2;stroke-linecap:round;stroke-linejoin:round;stroke-miterlimit:10;}
	.st24{fill:#FFFFFF;stroke:#000000;stroke-width:12;stroke-linecap:round;stroke-linejoin:round;stroke-miterlimit:10;}
</style>
<pattern  x="-3108.6" y="-3304.6" width="18" height="12" patternUnits="userSpaceOnUse" id="New_Pattern" viewBox="2.7 -14.7 18 12" style="overflow:visible;">
	<g>
		<rect x="2.7" y="-14.7" class="st0" width="18" height="12"/>
		<circle cx="20.7" cy="-2.7" r="2.7"/>
		<circle cx="2.7" cy="-2.7" r="2.7"/>
		<circle cx="20.7" cy="-14.7" r="2.7"/>
		<circle cx="11.7" cy="-8.7" r="2.7"/>
		<circle cx="2.7" cy="-14.7" r="2.7"/>
	</g>
</pattern>
<g>
	<g>
		<path class="st1" d="M1035.4,647.1H304.9c-12,0-21.8-9.8-21.8-21.8V109.9c0-12,9.8-21.8,21.8-21.8h730.5c12,0,21.8,9.8,21.8,21.8
			v515.4C1057.2,637.3,1047.4,647.1,1035.4,647.1z"/>
		<path class="st2" d="M1209.5,102.3"/>
		<path class="st3" d="M1038.8,88.1H301.4c-10.1,0-18.4,8.2-18.4,18.4v44.7h774.1v-44.7C1057.2,96.3,1049,88.1,1038.8,88.1z"/>
	</g>
	<circle class="st4" cx="317.4" cy="119.6" r="12.4"/>
	<circle class="st5" cx="354.2" cy="119.6" r="12.4"/>
	<circle class="st6" cx="390.4" cy="119.6" r="12.4"/>
	<g>
		<line class="st7" x1="550.1" y1="603.2" x2="550.1" y2="462.4"/>
		<line class="st7" x1="663.3" y1="604.5" x2="663.3" y2="463.7"/>
		<line class="st7" x1="776.2" y1="604.5" x2="776.2" y2="463.7"/>
		<polyline class="st8" points="495.6,571.6 574.6,520.9 637.4,546.2 725.3,492.2 776.2,507.5 833.8,462.4 		"/>
		<g>
			<line class="st7" x1="473.1" y1="462.4" x2="842.9" y2="462.4"/>
			<line class="st7" x1="473.1" y1="499.8" x2="842.9" y2="499.8"/>
			<line class="st7" x1="473.1" y1="534.1" x2="842.9" y2="534.1"/>
			<line class="st7" x1="473.1" y1="603.2" x2="842.9" y2="603.2"/>
			<line class="st7" x1="473.1" y1="571.6" x2="842.9" y2="571.6"/>
		</g>
		<circle class="st9" cx="495.6" cy="571.6" r="9.4"/>
		<circle class="st10" cx="575.3" cy="522.4" r="9.4"/>
		<circle class="st9" cx="636.9" cy="545.8" r="9.4"/>
		<circle class="st10" cx="724.2" cy="492.6" r="9.4"/>
		<circle class="st9" cx="776.2" cy="507.5" r="9.4"/>
		<circle class="st10" cx="833.5" cy="462.4" r="9.4"/>
		<circle class="st11" cx="550.1" cy="603.2" r="3.5"/>
		<circle class="st11" cx="663" cy="603.2" r="3.5"/>
		<circle class="st11" cx="776.4" cy="603.2" r="3.5"/>
	</g>
	<g>
		<g>
			<path class="st11" d="M829.4,197.7v-1.5c0-4.7,4.6-8.5,10.4-8.5h103.4c5.7,0,10.4,3.8,10.4,8.5v5c0,4.7-4.6,8.5-10.4,8.5H839.8
				c-5.7,0-10.4-3.8-10.4-8.5V197.7z"/>
			<path class="st12" d="M807.3,244.8v-29.2c0-11.2,9.1-20.3,20.3-20.3h117.8c-11.2,0-20.3,9.1-20.3,20.3v29.2"/>
			<path class="st12" d="M786.3,295.1v-29.2c0-11.2,9.1-20.3,20.3-20.3h117.8c-11.2,0-20.3,9.1-20.3,20.3v29.2"/>
			<path class="st12" d="M882.6,419.3H764.8v-75v-29.2c0-11.2,9.1-20.3,20.3-20.3H903c-11.2,0-20.3,9.1-20.3,20.3v29.2V419.3"/>
			<rect x="781.4" y="315" width="7.3" height="84.6"/>
			<rect x="801.6" y="357" width="7.3" height="42.3"/>
			<line class="st8" x1="829.6" y1="212.9" x2="903" y2="212.9"/>
			<line class="st8" x1="829.6" y1="226.1" x2="903" y2="226.1"/>
			<line class="st8" x1="808.5" y1="260.7" x2="881.8" y2="260.7"/>
			<line class="st8" x1="808.5" y1="274.3" x2="881.8" y2="274.3"/>
			<g>
				<path class="st8" d="M861.6,383c0-0.2,0-0.5,0-0.7c0-0.2-0.1-0.5-0.1-0.7c0-0.2,0-0.5,0-0.7c0-0.2-0.2-0.5-0.2-0.7
					c0-0.2-0.1-0.5-0.1-0.7c-0.1-0.2-0.1-0.5-0.2-0.7c-0.1-0.2,0-0.5,0-0.7c-0.1-0.2-0.2-0.4-0.3-0.7c-0.1-0.2-0.2-0.4-0.3-0.7
					c-0.1-0.2-0.2-0.5-0.3-0.7c-0.1-0.2-0.2-0.4-0.3-0.7c-0.1-0.2-0.3-0.4-0.4-0.6c-0.1-0.2-0.2-0.5-0.3-0.7
					c-0.1-0.2-0.3-0.4-0.5-0.5c-0.1-0.2-0.3-0.3-0.5-0.5c-0.1-0.2-0.2-0.4-0.4-0.6c-0.2-0.2-0.4-0.3-0.5-0.5
					c-0.2-0.2-0.3-0.4-0.5-0.5c-0.2-0.2-0.3-0.4-0.5-0.5c-0.2-0.2-0.3-0.4-0.5-0.5c-0.2-0.1-0.5-0.2-0.7-0.3
					c-0.2-0.1-0.3-0.4-0.5-0.5c-0.2-0.1-0.5-0.1-0.7-0.3c-0.2-0.1-0.4-0.3-0.6-0.4c-0.2-0.1-0.4-0.2-0.6-0.3
					c-0.2-0.1-0.5-0.2-0.7-0.3c-0.2-0.1-0.5-0.1-0.7-0.2c-0.2-0.1-0.4-0.3-0.6-0.4c-0.2-0.1-0.5-0.2-0.7-0.2
					c-0.2-0.1-0.5-0.1-0.7-0.1c-0.2-0.1-0.5-0.1-0.7-0.1c-0.2,0-0.5,0-0.7,0c-0.2,0-0.5-0.2-0.7-0.2c-0.2,0-0.5,0.1-0.7,0
					c-0.2,0-0.5,0-0.7,0c-0.2,0-0.5,0-0.7,0c-0.2,0-0.5,0-0.7,0c-0.2,0-0.5,0.1-0.7,0.1c-0.2,0-0.5,0.1-0.7,0.1c-0.2,0-0.5,0-0.7,0
					c-0.2,0.1-0.4,0.2-0.7,0.3c-0.2,0.1-0.5,0.1-0.7,0.2c-0.2,0.1-0.4,0.2-0.7,0.3c-0.2,0.1-0.5,0.2-0.7,0.3
					c-0.2,0.1-0.4,0.2-0.7,0.3c-0.2,0.1-0.5,0.2-0.7,0.3c-0.2,0.1-0.4,0.2-0.6,0.4c-0.2,0.1-0.4,0.3-0.6,0.4
					c-0.2,0.1-0.4,0.3-0.6,0.4c-0.2,0.1-0.3,0.4-0.5,0.5c-0.2,0.1-0.4,0.2-0.6,0.4c-0.2,0.2-0.3,0.3-0.5,0.5
					c-0.2,0.2-0.3,0.4-0.5,0.5s-0.3,0.3-0.5,0.5c-0.2,0.2-0.4,0.3-0.6,0.5c-0.1,0.2-0.2,0.4-0.4,0.6c-0.1,0.2-0.3,0.4-0.4,0.6
					c-0.1,0.2-0.2,0.4-0.3,0.6c-0.1,0.2-0.3,0.4-0.4,0.6c-0.1,0.2-0.2,0.4-0.3,0.6c-0.1,0.2-0.3,0.4-0.4,0.6
					c-0.1,0.2-0.2,0.4-0.3,0.7c-0.1,0.2,0,0.5-0.1,0.7c-0.1,0.2-0.2,0.4-0.3,0.7c-0.1,0.2,0,0.5-0.1,0.7c-0.1,0.2-0.2,0.4-0.2,0.7
					c0,0.2-0.1,0.5-0.1,0.7c0,0.2,0,0.5,0,0.7c0,0.2-0.1,0.5-0.1,0.7c0,0.2,0,0.5,0,0.7s0,0.5,0,0.7c0,0.2,0.1,0.5,0.1,0.7
					c0,0.2,0.1,0.5,0.1,0.7c0,0.2,0,0.5,0,0.7c0,0.2,0.2,0.5,0.2,0.7c0.1,0.2,0.1,0.5,0.1,0.7c0.1,0.2,0.2,0.5,0.2,0.7
					c0.1,0.2,0.2,0.5,0.2,0.7c0.1,0.2,0.2,0.4,0.3,0.7c0.1,0.2,0.2,0.4,0.3,0.6c0.1,0.2,0.2,0.4,0.3,0.6c0.1,0.2,0.3,0.4,0.4,0.6
					c0.1,0.2,0.1,0.5,0.3,0.7c0.1,0.2,0.4,0.3,0.5,0.5c0.1,0.2,0.3,0.4,0.4,0.6c0.1,0.2,0.3,0.4,0.4,0.6c0.2,0.2,0.2,0.4,0.4,0.6
					c0.2,0.2,0.3,0.4,0.5,0.5c0.2,0.2,0.4,0.3,0.6,0.5c0.2,0.2,0.4,0.3,0.6,0.4c0.2,0.1,0.4,0.3,0.6,0.4c0.2,0.1,0.4,0.3,0.6,0.4
					c0.2,0.1,0.4,0.2,0.6,0.4c0.2,0.1,0.4,0.2,0.6,0.3c0.2,0.1,0.4,0.3,0.6,0.4c0.2,0.1,0.4,0.2,0.7,0.3c0.2,0.1,0.4,0.2,0.7,0.3
					c0.2,0.1,0.5,0.1,0.7,0.2c0.2,0.1,0.5,0.1,0.7,0.2c0.2,0.1,0.4,0.2,0.7,0.3c0.2,0.1,0.5,0.1,0.7,0.1c0.2,0,0.5,0,0.7,0.1
					c0.2,0,0.5,0,0.7,0c0.2,0,0.5,0,0.7,0c0.2,0,0.5,0.1,0.7,0.1c0.2,0,0.5,0,0.7,0c0.2,0,0.5,0,0.7-0.1c0.2,0,0.5,0,0.7,0
					c0.2,0,0.5-0.1,0.7-0.2c0.2,0,0.5,0,0.7-0.1c0.2-0.1,0.4-0.2,0.7-0.3c0.2-0.1,0.5,0,0.7-0.1c0.2-0.1,0.4-0.3,0.6-0.4
					c0.2-0.1,0.5-0.1,0.7-0.2c0.2-0.1,0.4-0.2,0.6-0.3c0.2-0.1,0.4-0.3,0.6-0.4c0.2-0.1,0.5-0.1,0.7-0.2c0.2-0.1,0.4-0.3,0.6-0.4
					c0.2-0.1,0.4-0.3,0.5-0.5c0.2-0.1,0.4-0.3,0.5-0.5c0.2-0.1,0.4-0.2,0.6-0.4c0.2-0.2,0.4-0.3,0.5-0.5c0.2-0.2,0.3-0.4,0.4-0.6
					c0.2-0.2,0.4-0.3,0.6-0.4c0.2-0.2,0.2-0.4,0.4-0.6c0.1-0.2,0.3-0.4,0.4-0.6c0.1-0.2,0.4-0.3,0.5-0.5c0.1-0.2,0.2-0.5,0.3-0.7
					c0.1-0.2,0.2-0.4,0.3-0.6c0.1-0.2,0.3-0.4,0.4-0.6c0.1-0.2,0.1-0.5,0.2-0.7c0.1-0.2,0.2-0.4,0.3-0.6c0.1-0.2,0.2-0.4,0.2-0.7
					c0.1-0.2,0.1-0.5,0.2-0.7c0.1-0.2,0.3-0.4,0.3-0.7c0.1-0.2,0-0.5,0-0.7c0-0.2,0.1-0.5,0.1-0.7c0-0.2,0.2-0.5,0.2-0.7
					c0-0.2,0-0.5,0-0.7C861.6,383.4,861.6,383.2,861.6,383z"/>
			</g>
			<g>
				<path d="M840.6,367.4c0,0.4,0.1,0.4,0.3,0.7c0.1,0.3,0.1,0.4,0.2,0.7c0.1,0.3,0.2,0.3,0.3,0.6c0.1,0.3,0.1,0.3,0.2,0.7
					c0.1,0.3,0.1,0.3,0.3,0.7c0.1,0.3,0.1,0.4,0.2,0.7c0.1,0.3,0.2,0.3,0.3,0.7c0.1,0.3,0.1,0.3,0.3,0.7c0.1,0.3,0.1,0.3,0.3,0.7
					c0.1,0.3,0.1,0.3,0.3,0.7c0.1,0.3,0,0.4,0.2,0.7c0.1,0.3,0.2,0.3,0.4,0.6c0.1,0.3,0.1,0.4,0.2,0.7c0.1,0.3,0.1,0.3,0.3,0.7
					c0.1,0.3,0.1,0.3,0.2,0.7c0.1,0.3,0.1,0.3,0.3,0.7c0.1,0.3,0.1,0.4,0.2,0.7c0.1,0.3,0.2,0.3,0.4,0.6c0.1,0.3,0,0.4,0.2,0.7
					c0.1,0.3,0.1,0.3,0.3,0.7c0.1,0.3,0.2,0.3,0.3,0.7c0.1,0.3,0.2,0.3,0.3,0.7c0.1,0.3,0.1,0.3,0.2,0.7c0.1,0.3,0.1,0.4,0.2,0.7
					c0.1,0.3,0.1,0.4,0.2,0.7c0.1,0.3,0.2,0.3,0.3,0.7c0.1,0.3-0.1,0.6,0.2,0.7c0.3,0.1,0.4-0.1,0.7-0.3c0.3-0.1,0.3-0.2,0.6-0.3
					c0.3-0.1,0.3-0.2,0.6-0.3c0.3-0.1,0.3-0.2,0.6-0.3c0.3-0.1,0.4-0.1,0.7-0.2c0.3-0.1,0.3-0.2,0.7-0.3c0.3-0.1,0.3-0.1,0.7-0.3
					c0.3-0.1,0.3-0.1,0.7-0.3c0.3-0.1,0.3-0.2,0.7-0.3c0.3-0.1,0.3-0.1,0.7-0.3c0.3-0.1,0.3-0.2,0.6-0.3c0.3-0.1,0.3-0.1,0.7-0.2
					s0.3-0.1,0.7-0.3c0.3-0.1,0.3-0.2,0.6-0.3c0.3-0.1,0.3-0.1,0.7-0.2c0.3-0.1,0.3-0.2,0.7-0.3c0.3-0.1,0.3-0.2,0.6-0.3
					c0.3-0.1,0.4-0.1,0.7-0.2c0.3-0.1,0.3-0.2,0.6-0.4c0.3-0.1,0.3-0.1,0.7-0.3c0.3-0.1,0.4-0.1,0.6-0.3c0.3-0.2,0-0.2-0.1-0.7
					c0-0.2-0.1-0.4-0.2-0.7c-0.1-0.2,0-0.5-0.1-0.7c-0.1-0.2-0.2-0.4-0.3-0.7c-0.1-0.2-0.2-0.4-0.3-0.6c-0.1-0.2-0.2-0.4-0.3-0.7
					c-0.1-0.2-0.2-0.4-0.3-0.7c-0.1-0.2-0.2-0.4-0.4-0.6c-0.1-0.2-0.2-0.4-0.4-0.6c-0.1-0.2-0.3-0.4-0.4-0.6
					c-0.1-0.2-0.4-0.3-0.5-0.5c-0.2-0.2-0.3-0.4-0.5-0.5c-0.2-0.2-0.3-0.4-0.5-0.5c-0.2-0.2-0.3-0.3-0.5-0.5
					c-0.2-0.2-0.4-0.3-0.6-0.4c-0.2-0.1-0.4-0.3-0.6-0.4c-0.2-0.1-0.4-0.3-0.6-0.4c-0.2-0.1-0.4-0.3-0.6-0.4
					c-0.2-0.1-0.5-0.2-0.7-0.3c-0.2-0.1-0.4-0.2-0.6-0.3c-0.2-0.1-0.4-0.2-0.7-0.3c-0.2-0.1-0.4-0.2-0.7-0.2
					c-0.2-0.1-0.4-0.2-0.7-0.2c-0.2-0.1-0.4-0.1-0.7-0.2c-0.2-0.1-0.5-0.1-0.7-0.1c-0.2-0.1-0.5-0.1-0.7-0.2c-0.2,0-0.5-0.1-0.7-0.1
					c-0.2,0-0.5-0.1-0.7-0.2c-0.2,0-0.5-0.1-0.7-0.1c-0.2,0-0.5-0.1-0.7-0.1c-0.2,0-0.5,0-0.7,0c-0.2,0-0.5,0-0.7-0.1
					c-0.2,0-0.5,0-0.7,0c-0.2,0-0.5,0-0.7,0c-0.2,0-0.5-0.1-0.7-0.1c-0.2,0-0.5,0-0.7,0c-0.2,0-0.5,0.1-0.7,0.1
					C841.1,367.4,840.9,367.4,840.6,367.4z"/>
			</g>
			<line class="st8" x1="829.6" y1="348.9" x2="864.8" y2="348.9"/>
			<line class="st8" x1="829.6" y1="337" x2="864.8" y2="337"/>
			<line class="st8" x1="829.6" y1="325.8" x2="864.8" y2="325.8"/>
		</g>
	</g>
	<g>
		<g>
			<g>
				<circle class="st9" cx="522.8" cy="236.9" r="52.8"/>
				<path class="st13" d="M531.8,280.1c0.2-4.7,1-9.4,2.3-13.9c1-3.3,2.7-6.9,6-8c3.6-1.1,7.9,1.4,11.2-0.5c2.7-1.5,3.3-5.2,2.5-8.2
					c-0.4-1.5-1-3-1.2-4.5c-0.2-1.5,0.3-3.3,1.6-4.1c1.1-0.7,2.7-0.7,3.5-1.8c0.7-1,0.3-2.4-0.5-3.4c-0.8-0.9-1.9-1.6-2.8-2.4
					c-2.6-2.6-2.6-6.8-3.4-10.4c-1.1-5-4.2-9.6-8.4-12.5l-2.9-1.5c0,0-32.4,32-32.7,32.3c-0.3,0.3-2.6,17.2-2.6,17.2l-1.2,4.8
					L531.8,280.1z"/>
				<path class="st14" d="M541.9,209.8c1.3-1.4,0.7-3.9-0.2-5.6c-0.9-1.7-3-2.6-4.9-2.2c-1.4,0.3-2.6,1.3-4,1.5
					c-1.1,0.2-2.2-0.1-3.4-0.3c-6.7-1.2-13.9,0.2-19.6,3.9c-5.7,3.7-9.9,9.7-11.5,16.3c-0.2,0.7-0.3,1.3-0.8,1.8
					c-0.4,0.5-1,0.7-1.6,0.9c-4.5,1.9-7.9,6.2-8.4,11.1c-0.5,4.8,2.1,9.9,6.4,12.1c1.1,0.5,2.3,0.9,3.2,1.8c1.1,1.2,1.3,3,1.9,4.5
					c1.2,3,3.1,5.3,6.3,5.4l0,0c0-1.4,0.6-3.4,1.9-4.2s3-0.9,4.5-1.2c4.3-0.9,8.1-5.1,7.2-9.4c-0.4-1.8-1.5-3.4-1.9-5.2
					c-0.5-1.8-0.1-4.1,1.7-4.8c2-0.8,4,1.2,6,1.9c3.2,1.2,6.8-0.8,8.7-3.6c1.8-2.8,2.3-6.3,2.7-9.7c0.4-2.9,0.7-5.8,1.1-8.7
					c0.2-1.5,0.4-3,1.1-4.3C539.1,210.8,540.4,209.7,541.9,209.8"/>
				<circle class="st14" cx="545.4" cy="230.4" r="1.1"/>
				<path class="st15" d="M536,288c-4.2,1.1-8.7,1.7-13.2,1.7c-10.6,0-20.5-3.1-28.8-8.5c3.7-2.2,6.4-3.4,6.4-3.4l2.7-14.5
					C521.5,263.3,531.6,278.9,536,288z"/>
			</g>
			<g>
				<g>
					<circle class="st10" cx="519.8" cy="363.2" r="55.8"/>
					<path class="st13" d="M550.5,344c-0.1,3.2-0.3,6.4,0.2,9.5s1.5,6.3,3.6,8.6c1.3,1.5,3.1,3,2.7,5c-0.4,2.3-3.4,2.8-5,4.5
						c-1.1,1.2-1.5,3-1.5,4.7c0,1.7,0.4,3.4,0.5,5.1c0.3,3.5-0.7,7.4-3.5,9.3c-1.9,1.3-4.3,1.3-6.5,2c-3.3,1-6.2,3.5-7.7,6.8
						L502,379.1l2.5-9.8l14.2-24.4l21.9-10.7L550.5,344z"/>
					<path class="st14" d="M502,378.1c-3.2-3.3-5.6-7.4-7.3-11.7c-2.8-7.7-2.9-16.1-2.8-24.4c0-2.1,0.1-4.2,0.8-6.1
						c1.5-4.6,6-7.4,10.5-8.3c2.1-0.4,4.4-0.5,6.3-1.4c2.5-1.1,4.4-3.5,6.7-4.9c4.9-2.9,11-1.5,16.5,0c3.7,1,7.4,2.1,11.1,3.1
						c3,0.9,6.3,1.9,8.3,4.4c1.7,2.2,2.1,5.4,1.6,8.2s-0.8,5-2.5,7.3c-1.3-1.2-3.7-2-5.3-2.8s-3.4-1-5-0.3c-1.2,0.6-2.1,1.7-2.9,2.9
						c-1.8,2.9-2.6,6.3-4.2,9.3c-1.1,2.1-2.5,4.1-4.2,5.7c-1.1,1-2.4,2-3.8,2c-1.7-0.1-3.1-1.5-4.1-3c-1-1.5-1.9-3.2-3.5-4
						c-2.1-1.1-4.8-0.2-6.2,1.7c-1.5,1.9-1.8,4.5-1.4,6.9c0.4,2.3,1.6,4.6,1,6.9c-0.6,2.4-2.8,4-4.9,5.1c-2.1,1.1-4.5,2.3-5.6,4.5"
						/>
					<path class="st16" d="M495.6,390.4c13.5,6.2,27.3,11.8,41.3,16.8"/>
					<circle class="st14" cx="544.8" cy="358" r="1.2"/>
					<path class="st17" d="M537.8,399.8c-10.6-6.4-25.2-14-35.8-20.7c-1.7,1.9-3.2,4-4.2,6.3c-0.5,1.1-1,2.3-1.7,3.4
						c-1.2,1.7-3,2.9-4.7,4.1c-4,2.9-7.6,6.2-10.7,9.9c10.1,9.9,23.9,16.1,39.2,16.1c7.6,0,14.8-1.5,21.4-4.3c-1.4-3-3-6.6-3.6-7.6
						c-0.1-0.2-0.1-0.4-0.1-0.6C537.5,404.4,537.8,402.1,537.8,399.8z"/>
				</g>
			</g>
		</g>
	</g>
	<g>
		<circle class="st18" cx="907.5" cy="195.3" r="59.6"/>
		<path class="st11" d="M908.4,228.2c-0.3,0-0.5,0-0.8,0c-2.2-0.2-4.1-1.5-5.2-3.3l-27.7-45.9c-2-3.3-0.9-7.6,2.4-9.6
			c3.3-2,7.6-0.9,9.6,2.4l23,38.1l61.8-64c2.7-2.8,7.1-2.9,9.9-0.2c2.8,2.7,2.9,7.1,0.2,9.9L913.5,226
			C912.1,227.4,910.3,228.2,908.4,228.2z"/>
	</g>
	<circle class="st9" cx="605" cy="603.2" r="9.4"/>
	<circle class="st10" cx="974.1" cy="264.9" r="9.4"/>
	<circle class="st10" cx="935.1" cy="363.2" r="9.4"/>
	<circle class="st10" cx="688.2" cy="418.9" r="9.4"/>
	<circle class="st10" cx="387.9" cy="195.3" r="9.4"/>
	<circle class="st9" cx="907.5" cy="429.1" r="9.4"/>
	<circle class="st10" cx="776.2" cy="198.7" r="9.4"/>
	<circle class="st9" cx="733.6" cy="290" r="9.4"/>
	<circle class="st9" cx="591.6" cy="183.8" r="9.4"/>
	<circle class="st9" cx="605" cy="425.9" r="9.4"/>
	<circle class="st9" cx="829.6" cy="620" r="9.4"/>
	<circle class="st10" cx="419.3" cy="445.4" r="9.4"/>
	<circle class="st9" cx="443.1" cy="539.4" r="9.4"/>
	<path class="st12" d="M595.5,354.5c0-19.3,15.6-34.9,34.9-34.9h70.7c19.3,0,34.9,15.6,34.9,34.9l0,0c0,19.3-15.6,34.9-34.9,34.9
		h-70.7c-2.6,0-5.1-0.3-7.6-0.8l-26.9,10.2l8.8-20.7C599,371.9,595.5,363.6,595.5,354.5L595.5,354.5z"/>
	<path class="st12" d="M595.5,232.2c0-19.3,15.6-34.9,34.9-34.9h70.7c19.3,0,34.9,15.6,34.9,34.9l0,0c0,19.3-15.6,34.9-34.9,34.9
		h-70.7c-2.6,0-5.1-0.3-7.6-0.8l-26.9,10.2l8.8-20.7C599,249.5,595.5,241.3,595.5,232.2L595.5,232.2z"/>
	<g>
		<circle class="st14" cx="635.3" cy="233.3" r="9.4"/>
		<circle class="st14" cx="666.5" cy="233.3" r="9.4"/>
		<circle class="st14" cx="697.6" cy="233.3" r="9.4"/>
	</g>
	<g>
		<circle class="st14" cx="635.3" cy="355.3" r="9.4"/>
		<circle class="st14" cx="666.5" cy="355.3" r="9.4"/>
		<circle class="st14" cx="697.6" cy="355.3" r="9.4"/>
	</g>
</g>
<g>
	<g>
		<path class="st11" d="M340.7,661.2v53.2H459c0,0,0-53.2-59.1-53.2H340.7z"/>
		<path class="st11" d="M200.6,661.2v53.2h94.1c0,0,0-53.2-47-53.2H200.6z"/>
		<path class="st11" d="M414.4,670.4c1.4,0,2.8-0.8,3.8-2.3l9.1-14.4c-2.8-1.6-6-3.1-9.4-4.1l-7.2,11.4c-1.6,2.5-1.2,6.2,0.9,8.1
			C412.4,670,413.4,670.4,414.4,670.4z"/>
	</g>
	<polyline class="st12" points="401,328 401,328 442.3,250.8 370.4,230.1 357.4,257.8 	"/>
	<path class="st13" d="M315.6,258H306c-6.1,0-11-4.9-11-11v-21.8c0-6.1,4.9-11,11-11h9.6c6.1,0,11,4.9,11,11v21.8
		C326.6,253.1,321.7,258,315.6,258z"/>
	<path class="st11" d="M300.1,207.1c-1,0-2,0.1-3,0.2c-1.6-5.7-7.7-9.1-14.7-9.1c-8.2,0-14.9,5.9-14.9,13.1c0,4.7,2.8,8.8,7,11.1
		c-3.7,5.8-4.3,11.7-2.4,18.2c5.3,18.3,27.8,16.4,27.8,16.4c8.6,0,14.8-9.2,14.8-19.9c0-10.7,9.3-18.4,9.3-18.4
		S317.2,207.1,300.1,207.1z"/>
	<ellipse class="st13" cx="408.4" cy="332.5" rx="28.6" ry="28.1"/>
	<g>
		<line class="st5" x1="423.3" y1="261.6" x2="372.6" y2="246.9"/>
		<line class="st5" x1="418.7" y1="272" x2="368" y2="257.4"/>
		<line class="st5" x1="414.2" y1="282.4" x2="363.5" y2="267.8"/>
		<line class="st5" x1="409.6" y1="292.8" x2="358.9" y2="278.2"/>
	</g>
	<path class="st19" d="M360.6,371.9c3.1,9.9,10,18.2,19.3,22.7c4.4,2.1,9.1,3.3,13.2,1.9c11.9-4.1,18.2-16.8,14.1-28.4l0.3,1
		l-24.9-94.7c-2.6-9.8-13.3-16.9-25.2-16.6c-28.3,0.7-79.1-0.3-109.5-0.4c-21.9-0.1-29.7,6.4-31.2,14.1l-21.6,95.7
		c-1.1,4.9-1.3,9.9-0.4,14.8c1.8,9.4,11.4,23,28.1,17.7c0.9-0.3,1.9-0.7,2.8-1.1c3.9-1.7,7.4-4.3,10.4-7.4l17.9-18.3l1.5,14.5
		l102-0.1v-25.6L360.6,371.9z"/>
	<polygon class="st20" points="423.7,623.5 357.4,387.4 322.9,387.4 291.5,387.4 255.4,387.4 184.3,647 274.6,647 307.2,471.7 
		339.9,647 	"/>
	<rect x="184.3" y="613.4" class="st20" width="100.8" height="47.7"/>
	<rect x="327" y="613.4" class="st20" width="100.8" height="47.7"/>
	<path class="st6" d="M357.4,387.4"/>
	<line class="st11" x1="254.1" y1="374.6" x2="246.9" y2="318.6"/>
	<line class="st11" x1="357.4" y1="386.4" x2="357.4" y2="314.3"/>
	<g>
		<path class="st8" d="M263.7,415H298v25.4c0,8.4-7.9,15.1-17.7,15.1h0c-10,0-18.1-7.1-17.7-15.7L263.7,415"/>
		<path class="st8" d="M317.4,415h34.3v25.4c0,8.4-7.9,15.1-17.7,15.1h0c-10,0-18.1-7.1-17.7-15.7L317.4,415"/>
	</g>
	<line class="st21" x1="288.2" y1="486" x2="264.6" y2="598.7"/>
</g>
<polygon class="st22" points="1137.3,372 1232.2,370.5 1147.7,327.3 1213.8,259.2 1123.5,288.3 1122.1,193.4 1078.8,277.9 
	1010.7,211.8 1039.9,302.1 945,303.6 1029.4,346.8 963.4,414.9 1053.7,385.8 1055.1,480.6 1098.4,396.2 1166.5,462.3 "/>
<g>
	<line class="st12" x1="1018.1" y1="467.8" x2="1054.1" y2="490.8"/>
	<polygon class="st10" points="895,643.8 959.4,684.9 1031.6,731 1168.1,643.8 1168.1,504.5 1031.6,417.3 895,504.5 	"/>
	<polygon class="st12" points="1168.1,505.5 1103.7,546.6 1031.6,592.7 1031.6,731 1103.7,684.9 1168.1,643.8 	"/>
	<pattern  id="SVGID_1_" xlink:href="#New_Pattern" patternTransform="matrix(0.9116 0 0 0.9116 -389.0127 -314.5439)">
	</pattern>
	<polygon class="st23" points="1168.1,505.5 1103.7,546.6 1031.6,592.7 1031.6,731 1103.7,684.9 1168.1,643.8 	"/>
	<polygon class="st9" points="895,505.5 959.4,546.6 1031.6,592.7 1031.6,731 959.4,684.9 895,643.8 	"/>
	<polyline class="st24" points="1067,534.3 1029.5,510.4 996.1,489 	"/>
	<polygon class="st12" points="1067,534.3 1029.5,510.4 996.1,489 996.1,401.2 1029.5,422.6 1067,446.5 	"/>
	<g>
		<line class="st12" x1="1020.8" y1="462.6" x2="1056.8" y2="485.6"/>
		<ellipse cx="1010.7" cy="459" rx="4.4" ry="5.1"/>
	</g>
	<g>
		<line class="st12" x1="1020.8" y1="484.6" x2="1056.8" y2="507.6"/>
		<ellipse cx="1010.7" cy="481" rx="4.4" ry="5.1"/>
	</g>
	<g>
		<line class="st12" x1="1020.8" y1="440.6" x2="1056.8" y2="463.6"/>
		<ellipse cx="1010.7" cy="437" rx="4.4" ry="5.1"/>
	</g>
</g>
</svg>
